#!OML:ASF H:\BreakDance\Project 1\Capture day 1\Session 1\Male.ASF
:FULLY-SPECIFIED
:DEGREES
1430
root -4.17462 15.9017 0.76228 -149.251 -79.5949 160.845
lowerback 12.4594 1.23844 0.460692
upperback 8.24087 1.19475 -1.5342
thorax 1.69793 0.455825 -1.98729
lowerneck -4.69117 1.2418 0.265567
upperneck -15.4675 1.42882 2.33552
head -4.27836 0.354825 0.722783
rclavicle -5.96354e-015 6.75868e-015
rhumerus 13.7132 59.899 -64.395
rradius 51.4352
rwrist 2.79696
rhand -32.5176 -20.1523
rfingers 7.12502
rthumb -5.74849 669.946
lclavicle -5.96354e-015 6.75868e-015
lhumerus 9.6461 -63.216 64.2787
lradius 46.9375
lwrist -0.576317
lhand -9.03019 -742.069
lfingers 7.12502
lthumb 16.9174 7.2139
rfemur -42.8666 -16.5175 15.6584
rtibia 55.6577
rfoot -20.6949 -11.0142
rtoes -11.9165
lfemur -30.1814 14.8605 -15.4347
ltibia 47.0502
lfoot -31.5388 9.21044
ltoes -34.2811
1431
root -4.2302 15.9182 0.760082 -150.33 -79.5333 161.275
lowerback 11.6729 1.22462 0.390755
upperback 8.10281 1.1992 -1.53362
thorax 1.9724 0.466118 -1.93429
lowerneck -4.75418 1.28004 0.232775
upperneck -15.114 1.49811 2.43612
head -4.13946 0.398636 0.758064
rclavicle 4.67144e-015 5.1684e-015
rhumerus 10.0828 59.6721 -67.2698
rradius 52.6021
rwrist 3.21034
rhand -32.57 -20.8884
rfingers 7.12502
rthumb -5.79904 669.211
lclavicle 4.67144e-015 5.1684e-015
lhumerus 3.98991 -61.5799 69.5747
lradius 47.6269
lwrist -1.38465
lhand -8.94882 -742.048
lfingers 7.12502
lthumb 16.9957 7.22872
rfemur -41.6343 -16.4781 15.4233
rtibia 55.2381
rfoot -20.5239 -11.1262
rtoes -11.9799
lfemur -28.9203 14.6791 -15.1658
ltibia 46.547
lfoot -31.3208 9.54211
ltoes -34.3097
1432
root -4.28463 15.9332 0.75738 -151.204 -79.5304 161.543
lowerback 10.867 1.19723 0.367782
upperback 7.95323 1.19155 -1.54686
thorax 2.24891 0.472878 -1.92082
lowerneck -4.80285 1.32015 0.183301
upperneck -14.7367 1.57362 2.55923
head -3.9964 0.446694 0.803401
rclavicle 7.25564e-015 -1.63003e-014
rhumerus 6.44107 59.1996 -70.1588
rradius 53.7492
rwrist 3.45372
rhand -32.4676 -21.6775
rfingers 7.12502
rthumb -5.70025 668.419
lclavicle 7.25564e-015 -1.63003e-014
lhumerus -1.06663 -59.6986 74.185
lradius 48.3468
lwrist -2.12326
lhand -9.01316 -742.025
lfingers 7.12502
lthumb 16.9338 7.25706
rfemur -40.4559 -16.3768 15.1773
rtibia 54.8485
rfoot -20.4194 -11.1902
rtoes -11.8982
lfemur -27.7442 14.473 -14.9209
ltibia 46.0688
lfoot -31.1466 9.8227
ltoes -34.2251
1433
root -4.33802 15.9461 0.754271 -151.901 -79.5888 161.665
lowerback 10.0883 1.14454 0.367238
upperback 7.77982 1.15288 -1.56447
thorax 2.48746 0.465173 -1.92295
lowerneck -4.84393 1.36501 0.139395
upperneck -14.3225 1.65594 2.68272
head -3.84282 0.499215 0.84742
rclavicle 2.64384e-014 -2.24627e-014
rhumerus 2.8384 58.5318 -73.0225
rradius 54.8628
rwrist 3.58146
rhand -32.2502 -22.4493
rfingers 7.12502
rthumb -5.49028 667.642
lclavicle 2.64384e-014 -2.24627e-014
lhumerus -5.61492 -57.5899 78.1842
lradius 49.0844
lwrist -2.78341
lhand -9.24134 -742.002
lfingers 7.12502
lthumb 16.7141 7.2983
rfemur -39.3157 -16.2199 14.9215
rtibia 54.4958
rfoot -20.4007 -11.2602
rtoes -11.8859
lfemur -26.6314 14.2545 -14.6931
ltibia 45.6158
lfoot -31.0059 10.0643
ltoes -34.0691
1434
root -4.39042 15.9568 0.750964 -152.315 -79.6935 161.526
lowerback 9.36189 1.06002 0.336553
upperback 7.57527 1.07 -1.58216
thorax 2.66448 0.433908 -1.90702
lowerneck -4.86113 1.42818 0.113513
upperneck -13.8812 1.75986 2.77269
head -3.68505 0.563891 0.876543
rclavicle -9.93923e-016 2.20651e-014
rhumerus -0.684827 57.7182 -75.8207
rradius 55.9228
rwrist 3.67622
rhand -31.9622 -23.1368
rfingers 7.12502
rthumb -5.21222 666.947
lclavicle -9.93923e-016 2.20651e-014
lhumerus -9.72499 -55.2666 81.6372
lradius 49.8294
lwrist -3.36906
lhand -9.62578 -741.987
lfingers 7.12502
lthumb 16.344 7.34418
rfemur -38.2116 -16.0287 14.6315
rtibia 54.1871
rfoot -20.4575 -11.3682
rtoes -12.0134
lfemur -25.5658 14.0266 -14.5087
ltibia 45.187
lfoot -30.8938 10.2836
ltoes -33.8898
1435
root -4.44051 15.9651 0.747506 -152.418 -79.8236 161.106
lowerback 8.72633 0.948996 0.247008
upperback 7.31484 0.948962 -1.60164
thorax 2.73232 0.380987 -1.86041
lowerneck -4.85646 1.5019 0.123126
upperneck -13.3929 1.87386 2.81879
head -3.51521 0.635044 0.884639
rclavicle 8.05078e-015 1.49089e-014
rhumerus -4.16214 56.7706 -78.5765
rradius 56.9192
rwrist 3.81037
rhand -31.6123 -23.6874
rfingers 7.12502
rthumb -4.87438 666.389
lclavicle 8.05078e-015 1.49089e-014
lhumerus -13.4734 -52.775 84.6103
lradius 50.5714
lwrist -3.91568
lhand -10.1433 -741.992
lfingers 7.12502
lthumb 15.8457 7.37999
rfemur -37.1675 -15.7927 14.3073
rtibia 53.9243
rfoot -20.5644 -11.5373
rtoes -12.182
lfemur -24.5618 13.7876 -14.3797
ltibia 44.7815
lfoot -30.809 10.5019
ltoes -33.7277
1436
root -4.48713 15.971 0.743703 -152.359 -79.9807 160.563
lowerback 8.16458 0.818697 0.115726
upperback 7.01143 0.800162 -1.61656
thorax 2.71468 0.312235 -1.78664
lowerneck -4.84099 1.57876 0.167518
upperneck -12.8707 1.98862 2.83592
head -3.33611 0.706919 0.877339
rclavicle 8.05078e-015 5.76476e-015
rhumerus -7.52629 55.6772 -81.2205
rradius 57.8539
rwrist 4.03231
rhand -31.174 -24.0685
rfingers 7.12502
rthumb -4.45116 665.998
lclavicle 8.05078e-015 5.76476e-015
lhumerus -16.8394 -50.1599 87.1004
lradius 51.2923
lwrist -4.47219
lhand -10.734 -742.018
lfingers 7.12502
lthumb 15.2767 7.39757
rfemur -36.199 -15.4873 13.9919
rtibia 53.7005
rfoot -20.7062 -11.7852
rtoes -12.2907
lfemur -23.6419 13.533 -14.2736
ltibia 44.4007
lfoot -30.7451 10.7472
ltoes -33.6242
